<svg xmlns="http://www.w3.org/2000/svg" xmlns:xlink="http://www.w3.org/1999/xlink" width="1600" height="960" viewBox="0 0 1600 960" role="img" aria-labelledby="title description"><title id="title">AND decision boundary</title><desc id="description">$x_1$; $x_2$; $w&#x27;$; $(0,0)$; $(0,1)$; $(1,0)$; $(1,1)$; DECISION BOUNDARY; AND; $x_1+x_2=1.5$; $w=(-1.5,1,1)$; Output 0; Output 1; NORMAL VECTOR; $w&#x27;=(1,1)$</desc><defs><linearGradient id="canvas" x2="1" y2="1"><stop stop-color="#08101b"/><stop offset="1" stop-color="#0b1623"/></linearGradient><linearGradient id="panel" x2="0.75" y2="1"><stop stop-color="#142638"/><stop offset="1" stop-color="#0c1726"/></linearGradient><radialGradient id="cyan-haze"><stop stop-color="#55e7ff" stop-opacity=".12"/><stop offset="1" stop-color="#55e7ff" stop-opacity="0"/></radialGradient><radialGradient id="pink-haze"><stop stop-color="#ff79cf" stop-opacity=".065"/><stop offset="1" stop-color="#ff79cf" stop-opacity="0"/></radialGradient><pattern id="hatch" width="16" height="16" patternUnits="userSpaceOnUse" patternTransform="rotate(45)"><path d="M0 0V16" stroke="#ff79cf" stroke-opacity=".19" stroke-width="2"/></pattern><path xmlns="http://www.w3.org/2000/svg" id="DejaVuSans-Oblique-78" d="M 3841 3500  L 2234 1784  L 3219 0  L 2559 0  L 1819 1388  L 531 0  L -166 0  L 1556 1844  L 641 3500  L 1300 3500  L 1972 2234  L 3144 3500  L 3841 3500  z " transform="scale(0.015625)" />
     <path xmlns="http://www.w3.org/2000/svg" id="DejaVuSans-31" d="M 794 531  L 1825 531  L 1825 4091  L 703 3866  L 703 4441  L 1819 4666  L 2450 4666  L 2450 531  L 3481 531  L 3481 0  L 794 0  L 794 531  z " transform="scale(0.015625)" />
     <path xmlns="http://www.w3.org/2000/svg" id="DejaVuSans-32" d="M 1228 531  L 3431 531  L 3431 0  L 469 0  L 469 531  Q 828 903 1448 1529  Q 2069 2156 2228 2338  Q 2531 2678 2651 2914  Q 2772 3150 2772 3378  Q 2772 3750 2511 3984  Q 2250 4219 1831 4219  Q 1534 4219 1204 4116  Q 875 4013 500 3803  L 500 4441  Q 881 4594 1212 4672  Q 1544 4750 1819 4750  Q 2544 4750 2975 4387  Q 3406 4025 3406 3419  Q 3406 3131 3298 2873  Q 3191 2616 2906 2266  Q 2828 2175 2409 1742  Q 1991 1309 1228 531  z " transform="scale(0.015625)" />
     <path xmlns="http://www.w3.org/2000/svg" id="DejaVuSans-Oblique-77" d="M 544 3500  L 1113 3500  L 1259 684  L 2566 3500  L 3231 3500  L 3425 684  L 4666 3500  L 5241 3500  L 3641 0  L 2969 0  L 2797 2900  L 1459 0  L 781 0  L 544 3500  z " transform="scale(0.015625)" />
     <path xmlns="http://www.w3.org/2000/svg" id="Cmsy10-30" d="M 225 347  Q 184 359 184 409  L 966 3316  Q 1003 3434 1093 3506  Q 1184 3578 1300 3578  Q 1450 3578 1564 3479  Q 1678 3381 1678 3231  Q 1678 3166 1644 3084  L 488 319  Q 466 275 428 275  Q 394 275 320 306  Q 247 338 225 347  z " transform="scale(0.015625)" />
     <path xmlns="http://www.w3.org/2000/svg" id="DejaVuSans-28" d="M 1984 4856  Q 1566 4138 1362 3434  Q 1159 2731 1159 2009  Q 1159 1288 1364 580  Q 1569 -128 1984 -844  L 1484 -844  Q 1016 -109 783 600  Q 550 1309 550 2009  Q 550 2706 781 3412  Q 1013 4119 1484 4856  L 1984 4856  z " transform="scale(0.015625)" />
     <path xmlns="http://www.w3.org/2000/svg" id="DejaVuSans-30" d="M 2034 4250  Q 1547 4250 1301 3770  Q 1056 3291 1056 2328  Q 1056 1369 1301 889  Q 1547 409 2034 409  Q 2525 409 2770 889  Q 3016 1369 3016 2328  Q 3016 3291 2770 3770  Q 2525 4250 2034 4250  z M 2034 4750  Q 2819 4750 3233 4129  Q 3647 3509 3647 2328  Q 3647 1150 3233 529  Q 2819 -91 2034 -91  Q 1250 -91 836 529  Q 422 1150 422 2328  Q 422 3509 836 4129  Q 1250 4750 2034 4750  z " transform="scale(0.015625)" />
    <path xmlns="http://www.w3.org/2000/svg" id="DejaVuSans-2c" d="M 750 794  L 1409 794  L 1409 256  L 897 -744  L 494 -744  L 750 256  L 750 794  z " transform="scale(0.015625)" />
     <path xmlns="http://www.w3.org/2000/svg" id="DejaVuSans-29" d="M 513 4856  L 1013 4856  Q 1481 4119 1714 3412  Q 1947 2706 1947 2009  Q 1947 1309 1714 600  Q 1481 -109 1013 -844  L 513 -844  Q 928 -128 1133 580  Q 1338 1288 1338 2009  Q 1338 2731 1133 3434  Q 928 4138 513 4856  z " transform="scale(0.015625)" />
    <path xmlns="http://www.w3.org/2000/svg" id="DejaVuSans-44" d="M 1259 4147  L 1259 519  L 2022 519  Q 2988 519 3436 956  Q 3884 1394 3884 2338  Q 3884 3275 3436 3711  Q 2988 4147 2022 4147  L 1259 4147  z M 628 4666  L 1925 4666  Q 3281 4666 3915 4102  Q 4550 3538 4550 2338  Q 4550 1131 3912 565  Q 3275 0 1925 0  L 628 0  L 628 4666  z " transform="scale(0.015625)" />
     <path xmlns="http://www.w3.org/2000/svg" id="DejaVuSans-45" d="M 628 4666  L 3578 4666  L 3578 4134  L 1259 4134  L 1259 2753  L 3481 2753  L 3481 2222  L 1259 2222  L 1259 531  L 3634 531  L 3634 0  L 628 0  L 628 4666  z " transform="scale(0.015625)" />
     <path xmlns="http://www.w3.org/2000/svg" id="DejaVuSans-43" d="M 4122 4306  L 4122 3641  Q 3803 3938 3442 4084  Q 3081 4231 2675 4231  Q 1875 4231 1450 3742  Q 1025 3253 1025 2328  Q 1025 1406 1450 917  Q 1875 428 2675 428  Q 3081 428 3442 575  Q 3803 722 4122 1019  L 4122 359  Q 3791 134 3420 21  Q 3050 -91 2638 -91  Q 1578 -91 968 557  Q 359 1206 359 2328  Q 359 3453 968 4101  Q 1578 4750 2638 4750  Q 3056 4750 3426 4639  Q 3797 4528 4122 4306  z " transform="scale(0.015625)" />
     <path xmlns="http://www.w3.org/2000/svg" id="DejaVuSans-49" d="M 628 4666  L 1259 4666  L 1259 0  L 628 0  L 628 4666  z " transform="scale(0.015625)" />
     <path xmlns="http://www.w3.org/2000/svg" id="DejaVuSans-53" d="M 3425 4513  L 3425 3897  Q 3066 4069 2747 4153  Q 2428 4238 2131 4238  Q 1616 4238 1336 4038  Q 1056 3838 1056 3469  Q 1056 3159 1242 3001  Q 1428 2844 1947 2747  L 2328 2669  Q 3034 2534 3370 2195  Q 3706 1856 3706 1288  Q 3706 609 3251 259  Q 2797 -91 1919 -91  Q 1588 -91 1214 -16  Q 841 59 441 206  L 441 856  Q 825 641 1194 531  Q 1563 422 1919 422  Q 2459 422 2753 634  Q 3047 847 3047 1241  Q 3047 1584 2836 1778  Q 2625 1972 2144 2069  L 1759 2144  Q 1053 2284 737 2584  Q 422 2884 422 3419  Q 422 4038 858 4394  Q 1294 4750 2059 4750  Q 2388 4750 2728 4690  Q 3069 4631 3425 4513  z " transform="scale(0.015625)" />
     <path xmlns="http://www.w3.org/2000/svg" id="DejaVuSans-4f" d="M 2522 4238  Q 1834 4238 1429 3725  Q 1025 3213 1025 2328  Q 1025 1447 1429 934  Q 1834 422 2522 422  Q 3209 422 3611 934  Q 4013 1447 4013 2328  Q 4013 3213 3611 3725  Q 3209 4238 2522 4238  z M 2522 4750  Q 3503 4750 4090 4092  Q 4678 3434 4678 2328  Q 4678 1225 4090 567  Q 3503 -91 2522 -91  Q 1538 -91 948 565  Q 359 1222 359 2328  Q 359 3434 948 4092  Q 1538 4750 2522 4750  z " transform="scale(0.015625)" />
     <path xmlns="http://www.w3.org/2000/svg" id="DejaVuSans-4e" d="M 628 4666  L 1478 4666  L 3547 763  L 3547 4666  L 4159 4666  L 4159 0  L 3309 0  L 1241 3903  L 1241 0  L 628 0  L 628 4666  z " transform="scale(0.015625)" />
     <path xmlns="http://www.w3.org/2000/svg" id="DejaVuSans-20" transform="scale(0.015625)" />
     <path xmlns="http://www.w3.org/2000/svg" id="DejaVuSans-42" d="M 1259 2228  L 1259 519  L 2272 519  Q 2781 519 3026 730  Q 3272 941 3272 1375  Q 3272 1813 3026 2020  Q 2781 2228 2272 2228  L 1259 2228  z M 1259 4147  L 1259 2741  L 2194 2741  Q 2656 2741 2882 2914  Q 3109 3088 3109 3444  Q 3109 3797 2882 3972  Q 2656 4147 2194 4147  L 1259 4147  z M 628 4666  L 2241 4666  Q 2963 4666 3353 4366  Q 3744 4066 3744 3513  Q 3744 3084 3544 2831  Q 3344 2578 2956 2516  Q 3422 2416 3680 2098  Q 3938 1781 3938 1306  Q 3938 681 3513 340  Q 3088 0 2303 0  L 628 0  L 628 4666  z " transform="scale(0.015625)" />
     <path xmlns="http://www.w3.org/2000/svg" id="DejaVuSans-55" d="M 556 4666  L 1191 4666  L 1191 1831  Q 1191 1081 1462 751  Q 1734 422 2344 422  Q 2950 422 3222 751  Q 3494 1081 3494 1831  L 3494 4666  L 4128 4666  L 4128 1753  Q 4128 841 3676 375  Q 3225 -91 2344 -91  Q 1459 -91 1007 375  Q 556 841 556 1753  L 556 4666  z " transform="scale(0.015625)" />
     <path xmlns="http://www.w3.org/2000/svg" id="DejaVuSans-41" d="M 2188 4044  L 1331 1722  L 3047 1722  L 2188 4044  z M 1831 4666  L 2547 4666  L 4325 0  L 3669 0  L 3244 1197  L 1141 1197  L 716 0  L 50 0  L 1831 4666  z " transform="scale(0.015625)" />
     <path xmlns="http://www.w3.org/2000/svg" id="DejaVuSans-52" d="M 2841 2188  Q 3044 2119 3236 1894  Q 3428 1669 3622 1275  L 4263 0  L 3584 0  L 2988 1197  Q 2756 1666 2539 1819  Q 2322 1972 1947 1972  L 1259 1972  L 1259 0  L 628 0  L 628 4666  L 2053 4666  Q 2853 4666 3247 4331  Q 3641 3997 3641 3322  Q 3641 2881 3436 2590  Q 3231 2300 2841 2188  z M 1259 4147  L 1259 2491  L 2053 2491  Q 2509 2491 2742 2702  Q 2975 2913 2975 3322  Q 2975 3731 2742 3939  Q 2509 4147 2053 4147  L 1259 4147  z " transform="scale(0.015625)" />
     <path xmlns="http://www.w3.org/2000/svg" id="DejaVuSans-59" d="M -13 4666  L 666 4666  L 1959 2747  L 3244 4666  L 3922 4666  L 2272 2222  L 2272 0  L 1638 0  L 1638 2222  L -13 4666  z " transform="scale(0.015625)" />
    <path xmlns="http://www.w3.org/2000/svg" id="DejaVuSans-Bold-41" d="M 3419 850  L 1538 850  L 1241 0  L 31 0  L 1759 4666  L 3194 4666  L 4922 0  L 3713 0  L 3419 850  z M 1838 1716  L 3116 1716  L 2478 3572  L 1838 1716  z " transform="scale(0.015625)" />
     <path xmlns="http://www.w3.org/2000/svg" id="DejaVuSans-Bold-4e" d="M 588 4666  L 1931 4666  L 3628 1466  L 3628 4666  L 4769 4666  L 4769 0  L 3425 0  L 1728 3200  L 1728 0  L 588 0  L 588 4666  z " transform="scale(0.015625)" />
     <path xmlns="http://www.w3.org/2000/svg" id="DejaVuSans-Bold-44" d="M 1791 3756  L 1791 909  L 2222 909  Q 2959 909 3348 1275  Q 3738 1641 3738 2338  Q 3738 3031 3350 3393  Q 2963 3756 2222 3756  L 1791 3756  z M 588 4666  L 1856 4666  Q 2919 4666 3439 4514  Q 3959 4363 4331 4000  Q 4659 3684 4818 3271  Q 4978 2859 4978 2338  Q 4978 1809 4818 1395  Q 4659 981 4331 666  Q 3956 303 3431 151  Q 2906 0 1856 0  L 588 0  L 588 4666  z " transform="scale(0.015625)" />
    <path xmlns="http://www.w3.org/2000/svg" id="DejaVuSans-2b" d="M 2944 4013  L 2944 2272  L 4684 2272  L 4684 1741  L 2944 1741  L 2944 0  L 2419 0  L 2419 1741  L 678 1741  L 678 2272  L 2419 2272  L 2419 4013  L 2944 4013  z " transform="scale(0.015625)" />
     <path xmlns="http://www.w3.org/2000/svg" id="DejaVuSans-3d" d="M 678 2906  L 4684 2906  L 4684 2381  L 678 2381  L 678 2906  z M 678 1631  L 4684 1631  L 4684 1100  L 678 1100  L 678 1631  z " transform="scale(0.015625)" />
     <path xmlns="http://www.w3.org/2000/svg" id="DejaVuSans-2e" d="M 684 794  L 1344 794  L 1344 0  L 684 0  L 684 794  z " transform="scale(0.015625)" />
     <path xmlns="http://www.w3.org/2000/svg" id="DejaVuSans-35" d="M 691 4666  L 3169 4666  L 3169 4134  L 1269 4134  L 1269 2991  Q 1406 3038 1543 3061  Q 1681 3084 1819 3084  Q 2600 3084 3056 2656  Q 3513 2228 3513 1497  Q 3513 744 3044 326  Q 2575 -91 1722 -91  Q 1428 -91 1123 -41  Q 819 9 494 109  L 494 744  Q 775 591 1075 516  Q 1375 441 1709 441  Q 2250 441 2565 725  Q 2881 1009 2881 1497  Q 2881 1984 2565 2268  Q 2250 2553 1709 2553  Q 1456 2553 1204 2497  Q 953 2441 691 2322  L 691 4666  z " transform="scale(0.015625)" />
     <path xmlns="http://www.w3.org/2000/svg" id="DejaVuSans-2212" d="M 678 2272  L 4684 2272  L 4684 1741  L 678 1741  L 678 2272  z " transform="scale(0.015625)" />
     <path xmlns="http://www.w3.org/2000/svg" id="DejaVuSans-75" d="M 544 1381  L 544 3500  L 1119 3500  L 1119 1403  Q 1119 906 1312 657  Q 1506 409 1894 409  Q 2359 409 2629 706  Q 2900 1003 2900 1516  L 2900 3500  L 3475 3500  L 3475 0  L 2900 0  L 2900 538  Q 2691 219 2414 64  Q 2138 -91 1772 -91  Q 1169 -91 856 284  Q 544 659 544 1381  z M 1991 3584  L 1991 3584  z " transform="scale(0.015625)" />
     <path xmlns="http://www.w3.org/2000/svg" id="DejaVuSans-74" d="M 1172 4494  L 1172 3500  L 2356 3500  L 2356 3053  L 1172 3053  L 1172 1153  Q 1172 725 1289 603  Q 1406 481 1766 481  L 2356 481  L 2356 0  L 1766 0  Q 1100 0 847 248  Q 594 497 594 1153  L 594 3053  L 172 3053  L 172 3500  L 594 3500  L 594 4494  L 1172 4494  z " transform="scale(0.015625)" />
     <path xmlns="http://www.w3.org/2000/svg" id="DejaVuSans-70" d="M 1159 525  L 1159 -1331  L 581 -1331  L 581 3500  L 1159 3500  L 1159 2969  Q 1341 3281 1617 3432  Q 1894 3584 2278 3584  Q 2916 3584 3314 3078  Q 3713 2572 3713 1747  Q 3713 922 3314 415  Q 2916 -91 2278 -91  Q 1894 -91 1617 61  Q 1341 213 1159 525  z M 3116 1747  Q 3116 2381 2855 2742  Q 2594 3103 2138 3103  Q 1681 3103 1420 2742  Q 1159 2381 1159 1747  Q 1159 1113 1420 752  Q 1681 391 2138 391  Q 2594 391 2855 752  Q 3116 1113 3116 1747  z " transform="scale(0.015625)" />
     <path xmlns="http://www.w3.org/2000/svg" id="DejaVuSans-4d" d="M 628 4666  L 1569 4666  L 2759 1491  L 3956 4666  L 4897 4666  L 4897 0  L 4281 0  L 4281 4097  L 3078 897  L 2444 897  L 1241 4097  L 1241 0  L 628 0  L 628 4666  z " transform="scale(0.015625)" />
     <path xmlns="http://www.w3.org/2000/svg" id="DejaVuSans-4c" d="M 628 4666  L 1259 4666  L 1259 531  L 3531 531  L 3531 0  L 628 0  L 628 4666  z " transform="scale(0.015625)" />
     <path xmlns="http://www.w3.org/2000/svg" id="DejaVuSans-56" d="M 1831 0  L 50 4666  L 709 4666  L 2188 738  L 3669 4666  L 4325 4666  L 2547 0  L 1831 0  z " transform="scale(0.015625)" />
     <path xmlns="http://www.w3.org/2000/svg" id="DejaVuSans-54" d="M -19 4666  L 3928 4666  L 3928 4134  L 2272 4134  L 2272 0  L 1638 0  L 1638 4134  L -19 4134  L -19 4666  z " transform="scale(0.015625)" />
    </defs><rect width="1600" height="960" rx="24" fill="url(#canvas)"/><ellipse cx="430" cy="230" rx="680" ry="440" fill="url(#cyan-haze)"/><ellipse cx="1280" cy="800" rx="500" ry="460" fill="url(#pink-haze)"/><rect x="24" y="24" width="1552" height="912" rx="22" fill="none" stroke="#233748"/><rect x="70" y="80" width="1010" height="790" rx="22" fill="#0a1724" stroke="#233d51" stroke-width="1.7" opacity="1"/><path d="M92 81 H1058" stroke="#233d51" stroke-opacity=".45"/><rect x="1110" y="80" width="420" height="790" rx="22" fill="url(#panel)" stroke="#233d51" stroke-width="1.7" opacity="1"/><path d="M1132 81 H1508" stroke="#233d51" stroke-opacity=".45"/><path d="M289.71,795.00 L289.71,135.00" fill="none" stroke="#233d51" stroke-width="1" stroke-linecap="round" stroke-linejoin="round" opacity="0.48"/><path d="M419.12,795.00 L419.12,135.00" fill="none" stroke="#233d51" stroke-width="1" stroke-linecap="round" stroke-linejoin="round" opacity="0.48"/><path d="M548.53,795.00 L548.53,135.00" fill="none" stroke="#233d51" stroke-width="1" stroke-linecap="round" stroke-linejoin="round" opacity="0.48"/><path d="M677.94,795.00 L677.94,135.00" fill="none" stroke="#233d51" stroke-width="1" stroke-linecap="round" stroke-linejoin="round" opacity="0.48"/><path d="M807.35,795.00 L807.35,135.00" fill="none" stroke="#233d51" stroke-width="1" stroke-linecap="round" stroke-linejoin="round" opacity="0.48"/><path d="M225.00,730.29 L885.00,730.29" fill="none" stroke="#233d51" stroke-width="1" stroke-linecap="round" stroke-linejoin="round" opacity="0.48"/><path d="M225.00,600.88 L885.00,600.88" fill="none" stroke="#233d51" stroke-width="1" stroke-linecap="round" stroke-linejoin="round" opacity="0.48"/><path d="M225.00,471.47 L885.00,471.47" fill="none" stroke="#233d51" stroke-width="1" stroke-linecap="round" stroke-linejoin="round" opacity="0.48"/><path d="M225.00,342.06 L885.00,342.06" fill="none" stroke="#233d51" stroke-width="1" stroke-linecap="round" stroke-linejoin="round" opacity="0.48"/><path d="M225.00,212.65 L885.00,212.65" fill="none" stroke="#233d51" stroke-width="1" stroke-linecap="round" stroke-linejoin="round" opacity="0.48"/><path d="M225.00,600.88 L885.00,600.88" fill="none" stroke="#90aabc" stroke-width="2" stroke-linecap="round" stroke-linejoin="round" opacity="1"/><polygon points="885.00,600.88 872.00,606.88 872.00,594.88" fill="#90aabc"/><path d="M419.12,795.00 L419.12,135.00" fill="none" stroke="#90aabc" stroke-width="2" stroke-linecap="round" stroke-linejoin="round" opacity="1"/><polygon points="419.12,135.00 425.12,148.00 413.12,148.00" fill="#90aabc"/><g transform="translate(910.0 604.8823529411766) rotate(0)"><svg xmlns="http://www.w3.org/2000/svg" xmlns:xlink="http://www.w3.org/1999/xlink" width="31.0" height="21.0" viewBox="0 0 31 21" version="1.1" x="-15.5" y="-10.5">
 <g>
  <g>

   <g style="fill: #eaf6fc" transform="translate(0 16) scale(0.29 -0.29)">
    <use xlink:href="#DejaVuSans-Oblique-78" transform="translate(0 0.3125)" />
    <use xlink:href="#DejaVuSans-31" transform="translate(59.179688 -16.09375) scale(0.7)" />
   </g>
  </g>
 </g>
</svg></g><g transform="translate(419.1176470588236 105.00000000000006) rotate(0)"><svg xmlns="http://www.w3.org/2000/svg" xmlns:xlink="http://www.w3.org/1999/xlink" width="31.0" height="21.0" viewBox="0 0 31 21" version="1.1" x="-15.5" y="-10.5">
 <g>
  <g>

   <g style="fill: #eaf6fc" transform="translate(0 16) scale(0.29 -0.29)">
    <use xlink:href="#DejaVuSans-Oblique-78" transform="translate(0 0.3125)" />
    <use xlink:href="#DejaVuSans-32" transform="translate(59.179688 -16.09375) scale(0.7)" />
   </g>
  </g>
 </g>
</svg></g><polygon points="885.0,678.5294117647059 885.0,135.00000000000006 341.47058823529414,135.00000000000006" fill="#ff79cf" fill-opacity="0.065"/><path d="M885.00,678.53 L341.47,135.00" fill="none" stroke="#ff79cf" stroke-width="3" stroke-linecap="round" stroke-linejoin="round" opacity="1"/><path d="M419.12,600.88 L543.35,476.65" fill="none" stroke="#86f2bd" stroke-width="3.7" stroke-linecap="round" stroke-linejoin="round" opacity="1"/><polygon points="543.35,476.65 538.40,490.08 529.92,481.60" fill="#86f2bd"/><g transform="translate(568.3529411764706 462.64705882352945) rotate(0)"><svg xmlns="http://www.w3.org/2000/svg" xmlns:xlink="http://www.w3.org/1999/xlink" width="32.0" height="23.0" viewBox="0 0 32 23" version="1.1" x="-16.0" y="-11.5">
 <g>
  <g>

   <g style="fill: #86f2bd" transform="translate(0 23) scale(0.29 -0.29)">
    <use xlink:href="#DejaVuSans-Oblique-77" transform="translate(0 0.584375)" />
    <use xlink:href="#Cmsy10-30" transform="translate(86.253255 38.865625) scale(0.7)" />
   </g>
  </g>
 </g>
</svg></g><circle cx="419.1176470588236" cy="600.8823529411766" r="18" fill="#55e7ff" fill-opacity=".08"/><circle cx="419.1176470588236" cy="600.8823529411766" r="12" fill="#55e7ff" stroke="#08101b" stroke-width="3"/><g transform="translate(374.1176470588236 631.8823529411766) rotate(0)"><svg xmlns="http://www.w3.org/2000/svg" xmlns:xlink="http://www.w3.org/1999/xlink" width="65.0" height="23.0" viewBox="0 0 65 23" version="1.1" x="-32.5" y="-11.5">
 <g>
  <g>

   <g style="fill: #55e7ff" transform="translate(0 19) scale(0.25 -0.25)">
    <use xlink:href="#DejaVuSans-28" transform="translate(0 0.125)" />
    <use xlink:href="#DejaVuSans-30" transform="translate(39.013672 0.125)" />
    <use xlink:href="#DejaVuSans-2c" transform="translate(102.636719 0.125)" />
    <use xlink:href="#DejaVuSans-30" transform="translate(153.90625 0.125)" />
    <use xlink:href="#DejaVuSans-29" transform="translate(217.529297 0.125)" />
   </g>
  </g>
 </g>
</svg></g><circle cx="419.1176470588236" cy="342.0588235294118" r="18" fill="#55e7ff" fill-opacity=".08"/><circle cx="419.1176470588236" cy="342.0588235294118" r="12" fill="#55e7ff" stroke="#08101b" stroke-width="3"/><g transform="translate(364.1176470588236 322.0588235294118) rotate(0)"><svg xmlns="http://www.w3.org/2000/svg" xmlns:xlink="http://www.w3.org/1999/xlink" width="65.0" height="23.0" viewBox="0 0 65 23" version="1.1" x="-32.5" y="-11.5">
 <g>
  <g>

   <g style="fill: #55e7ff" transform="translate(0 19) scale(0.25 -0.25)">
    <use xlink:href="#DejaVuSans-28" transform="translate(0 0.125)" />
    <use xlink:href="#DejaVuSans-30" transform="translate(39.013672 0.125)" />
    <use xlink:href="#DejaVuSans-2c" transform="translate(102.636719 0.125)" />
    <use xlink:href="#DejaVuSans-31" transform="translate(153.90625 0.125)" />
    <use xlink:href="#DejaVuSans-29" transform="translate(217.529297 0.125)" />
   </g>
  </g>
 </g>
</svg></g><circle cx="677.9411764705883" cy="600.8823529411766" r="18" fill="#55e7ff" fill-opacity=".08"/><circle cx="677.9411764705883" cy="600.8823529411766" r="12" fill="#55e7ff" stroke="#08101b" stroke-width="3"/><g transform="translate(715.9411764705883 633.8823529411766) rotate(0)"><svg xmlns="http://www.w3.org/2000/svg" xmlns:xlink="http://www.w3.org/1999/xlink" width="65.0" height="23.0" viewBox="0 0 65 23" version="1.1" x="-32.5" y="-11.5">
 <g>
  <g>

   <g style="fill: #55e7ff" transform="translate(0 19) scale(0.25 -0.25)">
    <use xlink:href="#DejaVuSans-28" transform="translate(0 0.125)" />
    <use xlink:href="#DejaVuSans-31" transform="translate(39.013672 0.125)" />
    <use xlink:href="#DejaVuSans-2c" transform="translate(102.636719 0.125)" />
    <use xlink:href="#DejaVuSans-30" transform="translate(153.90625 0.125)" />
    <use xlink:href="#DejaVuSans-29" transform="translate(217.529297 0.125)" />
   </g>
  </g>
 </g>
</svg></g><circle cx="677.9411764705883" cy="342.0588235294118" r="18" fill="#ff79cf" fill-opacity=".08"/><circle cx="677.9411764705883" cy="342.0588235294118" r="12" fill="#ff79cf" stroke="#08101b" stroke-width="3"/><g transform="translate(723.9411764705883 320.0588235294118) rotate(0)"><svg xmlns="http://www.w3.org/2000/svg" xmlns:xlink="http://www.w3.org/1999/xlink" width="65.0" height="23.0" viewBox="0 0 65 23" version="1.1" x="-32.5" y="-11.5">
 <g>
  <g>

   <g style="fill: #ff79cf" transform="translate(0 19) scale(0.25 -0.25)">
    <use xlink:href="#DejaVuSans-28" transform="translate(0 0.125)" />
    <use xlink:href="#DejaVuSans-31" transform="translate(39.013672 0.125)" />
    <use xlink:href="#DejaVuSans-2c" transform="translate(102.636719 0.125)" />
    <use xlink:href="#DejaVuSans-31" transform="translate(153.90625 0.125)" />
    <use xlink:href="#DejaVuSans-29" transform="translate(217.529297 0.125)" />
   </g>
  </g>
 </g>
</svg></g><g transform="translate(1150 130) rotate(0)"><svg xmlns="http://www.w3.org/2000/svg" xmlns:xlink="http://www.w3.org/1999/xlink" width="207.0" height="16.0" viewBox="0 0 207 16" version="1.1" x="0" y="-8.0">
 <g>
  <g>

   <g style="fill: #90aabc" transform="translate(0 15) scale(0.19 -0.19)">
    <use xlink:href="#DejaVuSans-44" />
    <use xlink:href="#DejaVuSans-45" transform="translate(77.001953 0)" />
    <use xlink:href="#DejaVuSans-43" transform="translate(140.185547 0)" />
    <use xlink:href="#DejaVuSans-49" transform="translate(210.009766 0)" />
    <use xlink:href="#DejaVuSans-53" transform="translate(239.501953 0)" />
    <use xlink:href="#DejaVuSans-49" transform="translate(302.978516 0)" />
    <use xlink:href="#DejaVuSans-4f" transform="translate(332.470703 0)" />
    <use xlink:href="#DejaVuSans-4e" transform="translate(411.181641 0)" />
    <use xlink:href="#DejaVuSans-20" transform="translate(485.986328 0)" />
    <use xlink:href="#DejaVuSans-42" transform="translate(517.773438 0)" />
    <use xlink:href="#DejaVuSans-4f" transform="translate(584.626953 0)" />
    <use xlink:href="#DejaVuSans-55" transform="translate(663.337891 0)" />
    <use xlink:href="#DejaVuSans-4e" transform="translate(736.53125 0)" />
    <use xlink:href="#DejaVuSans-44" transform="translate(811.335938 0)" />
    <use xlink:href="#DejaVuSans-41" transform="translate(886.587891 0)" />
    <use xlink:href="#DejaVuSans-52" transform="translate(954.996094 0)" />
    <use xlink:href="#DejaVuSans-59" transform="translate(1018.103516 0)" />
   </g>
  </g>
 </g>
</svg></g><g transform="translate(1320 223) rotate(0)"><svg xmlns="http://www.w3.org/2000/svg" xmlns:xlink="http://www.w3.org/1999/xlink" width="135.0" height="41.0" viewBox="0 0 135 41" version="1.1" x="-67.5" y="-20.5">
 <g>
  <g>

   <g style="fill: #ff79cf" transform="translate(0 41) scale(0.55 -0.55)">
    <use xlink:href="#DejaVuSans-Bold-41" />
    <use xlink:href="#DejaVuSans-Bold-4e" transform="translate(77.392578 0)" />
    <use xlink:href="#DejaVuSans-Bold-44" transform="translate(161.083984 0)" />
   </g>
  </g>
 </g>
</svg></g><g transform="translate(1320 320) rotate(0)"><svg xmlns="http://www.w3.org/2000/svg" xmlns:xlink="http://www.w3.org/1999/xlink" width="186.0" height="27.0" viewBox="0 0 186 27" version="1.1" x="-93.0" y="-13.5">
 <g>
  <g>

   <g style="fill: #ff79cf" transform="translate(0 22) scale(0.3 -0.3)">
    <use xlink:href="#DejaVuSans-Oblique-78" transform="translate(0 0.09375)" />
    <use xlink:href="#DejaVuSans-31" transform="translate(59.179688 -16.3125) scale(0.7)" />
    <use xlink:href="#DejaVuSans-2b" transform="translate(125.932617 0.09375)" />
    <use xlink:href="#DejaVuSans-Oblique-78" transform="translate(229.204102 0.09375)" />
    <use xlink:href="#DejaVuSans-32" transform="translate(288.383789 -16.3125) scale(0.7)" />
    <use xlink:href="#DejaVuSans-3d" transform="translate(355.136719 0.09375)" />
    <use xlink:href="#DejaVuSans-31" transform="translate(458.408203 0.09375)" />
    <use xlink:href="#DejaVuSans-2e" transform="translate(522.03125 0.09375)" />
    <use xlink:href="#DejaVuSans-35" transform="translate(553.818359 0.09375)" />
   </g>
  </g>
 </g>
</svg></g><g transform="translate(1320 383) rotate(0)"><svg xmlns="http://www.w3.org/2000/svg" xmlns:xlink="http://www.w3.org/1999/xlink" width="189.0" height="23.0" viewBox="0 0 189 23" version="1.1" x="-94.5" y="-11.5">
 <g>
  <g>

   <g style="fill: #eaf6fc" transform="translate(0 19) scale(0.25 -0.25)">
    <use xlink:href="#DejaVuSans-Oblique-77" transform="translate(0 0.125)" />
    <use xlink:href="#DejaVuSans-3d" transform="translate(101.269531 0.125)" />
    <use xlink:href="#DejaVuSans-28" transform="translate(204.541016 0.125)" />
    <use xlink:href="#DejaVuSans-2212" transform="translate(243.554688 0.125)" />
    <use xlink:href="#DejaVuSans-31" transform="translate(327.34375 0.125)" />
    <use xlink:href="#DejaVuSans-2e" transform="translate(390.966797 0.125)" />
    <use xlink:href="#DejaVuSans-35" transform="translate(422.753906 0.125)" />
    <use xlink:href="#DejaVuSans-2c" transform="translate(486.376953 0.125)" />
    <use xlink:href="#DejaVuSans-31" transform="translate(537.646484 0.125)" />
    <use xlink:href="#DejaVuSans-2c" transform="translate(601.269531 0.125)" />
    <use xlink:href="#DejaVuSans-31" transform="translate(652.539062 0.125)" />
    <use xlink:href="#DejaVuSans-29" transform="translate(716.162109 0.125)" />
   </g>
  </g>
 </g>
</svg></g><path d="M1150 450 H1490" stroke="#274255" stroke-width="1"/><circle cx="1165" cy="515" r="14" fill="#55e7ff" fill-opacity=".08"/><circle cx="1165" cy="515" r="8" fill="#55e7ff" stroke="#08101b" stroke-width="3"/><g transform="translate(1200 515) rotate(0)"><svg xmlns="http://www.w3.org/2000/svg" xmlns:xlink="http://www.w3.org/1999/xlink" width="107.0" height="23.0" viewBox="0 0 107 23" version="1.1" x="0" y="-11.5">
 <g>
  <g>

   <g style="fill: #eaf6fc" transform="translate(0 18) scale(0.24 -0.24)">
    <use xlink:href="#DejaVuSans-4f" />
    <use xlink:href="#DejaVuSans-75" transform="translate(78.710938 0)" />
    <use xlink:href="#DejaVuSans-74" transform="translate(142.089844 0)" />
    <use xlink:href="#DejaVuSans-70" transform="translate(181.298828 0)" />
    <use xlink:href="#DejaVuSans-75" transform="translate(244.775391 0)" />
    <use xlink:href="#DejaVuSans-74" transform="translate(308.154297 0)" />
    <use xlink:href="#DejaVuSans-20" transform="translate(347.363281 0)" />
    <use xlink:href="#DejaVuSans-30" transform="translate(379.150391 0)" />
   </g>
  </g>
 </g>
</svg></g><circle cx="1165" cy="580" r="14" fill="#ff79cf" fill-opacity=".08"/><circle cx="1165" cy="580" r="8" fill="#ff79cf" stroke="#08101b" stroke-width="3"/><g transform="translate(1200 580) rotate(0)"><svg xmlns="http://www.w3.org/2000/svg" xmlns:xlink="http://www.w3.org/1999/xlink" width="107.0" height="23.0" viewBox="0 0 107 23" version="1.1" x="0" y="-11.5">
 <g>
  <g>

   <g style="fill: #eaf6fc" transform="translate(0 18) scale(0.24 -0.24)">
    <use xlink:href="#DejaVuSans-4f" />
    <use xlink:href="#DejaVuSans-75" transform="translate(78.710938 0)" />
    <use xlink:href="#DejaVuSans-74" transform="translate(142.089844 0)" />
    <use xlink:href="#DejaVuSans-70" transform="translate(181.298828 0)" />
    <use xlink:href="#DejaVuSans-75" transform="translate(244.775391 0)" />
    <use xlink:href="#DejaVuSans-74" transform="translate(308.154297 0)" />
    <use xlink:href="#DejaVuSans-20" transform="translate(347.363281 0)" />
    <use xlink:href="#DejaVuSans-31" transform="translate(379.150391 0)" />
   </g>
  </g>
 </g>
</svg></g><path d="M1150 647 H1490" stroke="#274255" stroke-width="1"/><g transform="translate(1150 698) rotate(0)"><svg xmlns="http://www.w3.org/2000/svg" xmlns:xlink="http://www.w3.org/1999/xlink" width="167.0" height="16.0" viewBox="0 0 167 16" version="1.1" x="0" y="-8.0">
 <g>
  <g>

   <g style="fill: #90aabc" transform="translate(0 15) scale(0.19 -0.19)">
    <use xlink:href="#DejaVuSans-4e" />
    <use xlink:href="#DejaVuSans-4f" transform="translate(74.804688 0)" />
    <use xlink:href="#DejaVuSans-52" transform="translate(153.515625 0)" />
    <use xlink:href="#DejaVuSans-4d" transform="translate(222.998047 0)" />
    <use xlink:href="#DejaVuSans-41" transform="translate(309.277344 0)" />
    <use xlink:href="#DejaVuSans-4c" transform="translate(377.685547 0)" />
    <use xlink:href="#DejaVuSans-20" transform="translate(433.398438 0)" />
    <use xlink:href="#DejaVuSans-56" transform="translate(465.185547 0)" />
    <use xlink:href="#DejaVuSans-45" transform="translate(533.59375 0)" />
    <use xlink:href="#DejaVuSans-43" transform="translate(596.777344 0)" />
    <use xlink:href="#DejaVuSans-54" transform="translate(666.601562 0)" />
    <use xlink:href="#DejaVuSans-4f" transform="translate(727.685547 0)" />
    <use xlink:href="#DejaVuSans-52" transform="translate(806.396484 0)" />
   </g>
  </g>
 </g>
</svg></g><g transform="translate(1320 760) rotate(0)"><svg xmlns="http://www.w3.org/2000/svg" xmlns:xlink="http://www.w3.org/1999/xlink" width="142.0" height="27.0" viewBox="0 0 142 27" version="1.1" x="-71.0" y="-13.5">
 <g>
  <g>

   <g style="fill: #86f2bd" transform="translate(0 23) scale(0.29 -0.29)">
    <use xlink:href="#DejaVuSans-Oblique-77" transform="translate(0 0.584375)" />
    <use xlink:href="#Cmsy10-30" transform="translate(86.253255 38.865625) scale(0.7)" />
    <use xlink:href="#DejaVuSans-3d" transform="translate(127.713216 0.584375)" />
    <use xlink:href="#DejaVuSans-28" transform="translate(230.984701 0.584375)" />
    <use xlink:href="#DejaVuSans-31" transform="translate(269.998372 0.584375)" />
    <use xlink:href="#DejaVuSans-2c" transform="translate(333.621419 0.584375)" />
    <use xlink:href="#DejaVuSans-31" transform="translate(384.890951 0.584375)" />
    <use xlink:href="#DejaVuSans-29" transform="translate(448.513997 0.584375)" />
   </g>
  </g>
 </g>
</svg></g></svg>
