<?xml version="1.0" encoding="utf-8" standalone="no"?>
<!DOCTYPE svg PUBLIC "-//W3C//DTD SVG 1.1//EN"
  "http://www.w3.org/Graphics/SVG/1.1/DTD/svg11.dtd">
<svg xmlns:xlink="http://www.w3.org/1999/xlink" width="1152pt" height="648pt" viewBox="0 0 1152 648" xmlns="http://www.w3.org/2000/svg" version="1.1">
 <metadata>
  <rdf:RDF xmlns:dc="http://purl.org/dc/elements/1.1/" xmlns:cc="http://creativecommons.org/ns#" xmlns:rdf="http://www.w3.org/1999/02/22-rdf-syntax-ns#">
   <cc:Work>
    <dc:type rdf:resource="http://purl.org/dc/dcmitype/StillImage"/>
    <dc:format>image/svg+xml</dc:format>
    <dc:creator>
     <cc:Agent>
      <dc:title>Matplotlib v3.10.8, https://matplotlib.org/</dc:title>
     </cc:Agent>
    </dc:creator>
   </cc:Work>
  </rdf:RDF>
 </metadata>
 <defs>
  <style type="text/css">*{stroke-linejoin: round; stroke-linecap: butt}</style>
 </defs>
 <g id="figure_1">
  <g id="patch_1">
   <path d="M 0 648 
L 1152 648 
L 1152 0 
L 0 0 
z
" style="fill: #080e17"/>
  </g>
  <g id="axes_1">
   <g id="line2d_1">
    <path d="M 341.661176 589.68 
L 341.661176 32.4 
" clip-path="url(#p9730442f6c)" style="fill: none; stroke: #132538; stroke-width: 0.8; stroke-linecap: square"/>
   </g>
   <g id="line2d_2">
    <path d="M 546.543529 589.68 
L 546.543529 32.4 
" clip-path="url(#p9730442f6c)" style="fill: none; stroke: #132538; stroke-width: 0.8; stroke-linecap: square"/>
   </g>
   <g id="line2d_3">
    <path d="M 751.425882 589.68 
L 751.425882 32.4 
" clip-path="url(#p9730442f6c)" style="fill: none; stroke: #132538; stroke-width: 0.8; stroke-linecap: square"/>
   </g>
   <g id="line2d_4">
    <path d="M 956.308235 589.68 
L 956.308235 32.4 
" clip-path="url(#p9730442f6c)" style="fill: none; stroke: #132538; stroke-width: 0.8; stroke-linecap: square"/>
   </g>
   <g id="line2d_5">
    <path d="M 167.511176 442.164706 
L 1007.528824 442.164706 
" clip-path="url(#p9730442f6c)" style="fill: none; stroke: #132538; stroke-width: 0.8; stroke-linecap: square"/>
   </g>
   <g id="line2d_6">
    <path d="M 167.511176 237.282353 
L 1007.528824 237.282353 
" clip-path="url(#p9730442f6c)" style="fill: none; stroke: #132538; stroke-width: 0.8; stroke-linecap: square"/>
   </g>
   <g id="FillBetweenPolyCollection_1">
    <path d="M 167.511176 -39.308824 
L 167.511176 165.573529 
L 171.732371 169.794724 
L 175.953565 174.015918 
L 180.174759 178.237112 
L 184.395953 182.458306 
L 188.617148 186.6795 
L 192.838342 190.900695 
L 197.059536 195.121889 
L 201.28073 199.343083 
L 205.501924 203.564277 
L 209.723119 207.785471 
L 213.944313 212.006666 
L 218.165507 216.22786 
L 222.386701 220.449054 
L 226.607895 224.670248 
L 230.82909 228.891443 
L 235.050284 233.112637 
L 239.271478 237.333831 
L 243.492672 241.555025 
L 247.713866 245.776219 
L 251.935061 249.997414 
L 256.156255 254.218608 
L 260.377449 258.439802 
L 264.598643 262.660996 
L 268.819837 266.88219 
L 273.041032 271.103385 
L 277.262226 275.324579 
L 281.48342 279.545773 
L 285.704614 283.766967 
L 289.925808 287.988161 
L 294.147003 292.209356 
L 298.368197 296.43055 
L 302.589391 300.651744 
L 306.810585 304.872938 
L 311.031779 309.094132 
L 315.252974 313.315327 
L 319.474168 317.536521 
L 323.695362 321.757715 
L 327.916556 325.978909 
L 332.137751 330.200103 
L 336.358945 334.421298 
L 340.580139 338.642492 
L 344.801333 342.863686 
L 349.022527 347.08488 
L 353.243722 351.306074 
L 357.464916 355.527269 
L 361.68611 359.748463 
L 365.907304 363.969657 
L 370.128498 368.190851 
L 374.349693 372.412046 
L 378.570887 376.63324 
L 382.792081 380.854434 
L 387.013275 385.075628 
L 391.234469 389.296822 
L 395.455664 393.518017 
L 399.676858 397.739211 
L 403.898052 401.960405 
L 408.119246 406.181599 
L 412.34044 410.402793 
L 416.561635 414.623988 
L 420.782829 418.845182 
L 425.004023 423.066376 
L 429.225217 427.28757 
L 433.446411 431.508764 
L 437.667606 435.729959 
L 441.8888 439.951153 
L 446.109994 444.172347 
L 450.331188 448.393541 
L 454.552383 452.614735 
L 458.773577 456.83593 
L 462.994771 461.057124 
L 467.215965 465.278318 
L 471.437159 469.499512 
L 475.658354 473.720706 
L 479.879548 477.941901 
L 484.100742 482.163095 
L 488.321936 486.384289 
L 492.54313 490.605483 
L 496.764325 494.826678 
L 500.985519 499.047872 
L 505.206713 503.269066 
L 509.427907 507.49026 
L 513.649101 511.711454 
L 517.870296 515.932649 
L 522.09149 520.153843 
L 526.312684 524.375037 
L 530.533878 528.596231 
L 534.755072 532.817425 
L 538.976267 537.03862 
L 543.197461 541.259814 
L 547.418655 545.481008 
L 551.639849 549.702202 
L 555.861043 553.923396 
L 560.082238 558.144591 
L 564.303432 562.365785 
L 568.524626 566.586979 
L 572.74582 570.808173 
L 576.967014 575.029367 
L 581.188209 579.250562 
L 585.409403 583.471756 
L 589.630597 587.69295 
L 593.851791 591.914144 
L 598.072986 596.135338 
L 602.29418 600.356533 
L 606.515374 604.577727 
L 610.736568 608.798921 
L 614.957762 613.020115 
L 619.178957 617.241309 
L 623.400151 621.462504 
L 627.621345 625.683698 
L 631.842539 629.904892 
L 636.063733 634.126086 
L 640.284928 638.347281 
L 644.506122 642.568475 
L 648.727316 646.789669 
L 652.94851 651.010863 
L 657.169704 655.232057 
L 661.390899 659.453252 
L 665.612093 663.674446 
L 669.833287 667.89564 
L 674.054481 672.116834 
L 678.275675 676.338028 
L 682.49687 680.559223 
L 686.718064 684.780417 
L 690.939258 689.001611 
L 695.160452 693.222805 
L 699.381646 697.443999 
L 703.602841 701.665194 
L 707.824035 705.886388 
L 712.045229 710.107582 
L 716.266423 714.328776 
L 720.487617 718.54997 
L 724.708812 722.771165 
L 728.930006 726.992359 
L 733.1512 731.213553 
L 737.372394 735.434747 
L 741.593589 739.655941 
L 745.814783 743.877136 
L 750.035977 748.09833 
L 754.257171 752.319524 
L 758.478365 756.540718 
L 762.69956 760.761913 
L 766.920754 764.983107 
L 771.141948 769.204301 
L 775.363142 773.425495 
L 779.584336 777.646689 
L 783.805531 781.867884 
L 788.026725 786.089078 
L 792.247919 790.310272 
L 796.469113 794.531466 
L 800.690307 798.75266 
L 804.911502 802.973855 
L 809.132696 807.195049 
L 813.35389 811.416243 
L 817.575084 815.637437 
L 821.796278 819.858631 
L 826.017473 824.079826 
L 830.238667 828.30102 
L 834.459861 832.522214 
L 838.681055 836.743408 
L 842.902249 840.964602 
L 847.123444 845.185797 
L 851.344638 849.406991 
L 855.565832 853.628185 
L 859.787026 857.849379 
L 864.008221 862.070573 
L 868.229415 866.291768 
L 872.450609 870.512962 
L 876.671803 874.734156 
L 880.892997 878.95535 
L 885.114192 883.176544 
L 889.335386 887.397739 
L 893.55658 891.618933 
L 897.777774 895.840127 
L 901.998968 900.061321 
L 906.220163 904.282516 
L 910.441357 908.50371 
L 914.662551 912.724904 
L 918.883745 916.946098 
L 923.104939 921.167292 
L 927.326134 925.388487 
L 931.547328 929.609681 
L 935.768522 933.830875 
L 939.989716 938.052069 
L 944.21091 942.273263 
L 948.432105 946.494458 
L 952.653299 950.715652 
L 956.874493 954.936846 
L 961.095687 959.15804 
L 965.316881 963.379234 
L 969.538076 967.600429 
L 973.75927 971.821623 
L 977.980464 976.042817 
L 982.201658 980.264011 
L 986.422852 984.485205 
L 990.644047 988.7064 
L 994.865241 992.927594 
L 999.086435 997.148788 
L 1003.307629 1001.369982 
L 1007.528824 1005.591176 
L 1007.528824 800.708824 
L 1007.528824 800.708824 
L 1003.307629 796.487629 
L 999.086435 792.266435 
L 994.865241 788.045241 
L 990.644047 783.824047 
L 986.422852 779.602852 
L 982.201658 775.381658 
L 977.980464 771.160464 
L 973.75927 766.93927 
L 969.538076 762.718076 
L 965.316881 758.496881 
L 961.095687 754.275687 
L 956.874493 750.054493 
L 952.653299 745.833299 
L 948.432105 741.612105 
L 944.21091 737.39091 
L 939.989716 733.169716 
L 935.768522 728.948522 
L 931.547328 724.727328 
L 927.326134 720.506134 
L 923.104939 716.284939 
L 918.883745 712.063745 
L 914.662551 707.842551 
L 910.441357 703.621357 
L 906.220163 699.400163 
L 901.998968 695.178968 
L 897.777774 690.957774 
L 893.55658 686.73658 
L 889.335386 682.515386 
L 885.114192 678.294192 
L 880.892997 674.072997 
L 876.671803 669.851803 
L 872.450609 665.630609 
L 868.229415 661.409415 
L 864.008221 657.188221 
L 859.787026 652.967026 
L 855.565832 648.745832 
L 851.344638 644.524638 
L 847.123444 640.303444 
L 842.902249 636.082249 
L 838.681055 631.861055 
L 834.459861 627.639861 
L 830.238667 623.418667 
L 826.017473 619.197473 
L 821.796278 614.976278 
L 817.575084 610.755084 
L 813.35389 606.53389 
L 809.132696 602.312696 
L 804.911502 598.091502 
L 800.690307 593.870307 
L 796.469113 589.649113 
L 792.247919 585.427919 
L 788.026725 581.206725 
L 783.805531 576.985531 
L 779.584336 572.764336 
L 775.363142 568.543142 
L 771.141948 564.321948 
L 766.920754 560.100754 
L 762.69956 555.87956 
L 758.478365 551.658365 
L 754.257171 547.437171 
L 750.035977 543.215977 
L 745.814783 538.994783 
L 741.593589 534.773589 
L 737.372394 530.552394 
L 733.1512 526.3312 
L 728.930006 522.110006 
L 724.708812 517.888812 
L 720.487617 513.667617 
L 716.266423 509.446423 
L 712.045229 505.225229 
L 707.824035 501.004035 
L 703.602841 496.782841 
L 699.381646 492.561646 
L 695.160452 488.340452 
L 690.939258 484.119258 
L 686.718064 479.898064 
L 682.49687 475.67687 
L 678.275675 471.455675 
L 674.054481 467.234481 
L 669.833287 463.013287 
L 665.612093 458.792093 
L 661.390899 454.570899 
L 657.169704 450.349704 
L 652.94851 446.12851 
L 648.727316 441.907316 
L 644.506122 437.686122 
L 640.284928 433.464928 
L 636.063733 429.243733 
L 631.842539 425.022539 
L 627.621345 420.801345 
L 623.400151 416.580151 
L 619.178957 412.358957 
L 614.957762 408.137762 
L 610.736568 403.916568 
L 606.515374 399.695374 
L 602.29418 395.47418 
L 598.072986 391.252986 
L 593.851791 387.031791 
L 589.630597 382.810597 
L 585.409403 378.589403 
L 581.188209 374.368209 
L 576.967014 370.147014 
L 572.74582 365.92582 
L 568.524626 361.704626 
L 564.303432 357.483432 
L 560.082238 353.262238 
L 555.861043 349.041043 
L 551.639849 344.819849 
L 547.418655 340.598655 
L 543.197461 336.377461 
L 538.976267 332.156267 
L 534.755072 327.935072 
L 530.533878 323.713878 
L 526.312684 319.492684 
L 522.09149 315.27149 
L 517.870296 311.050296 
L 513.649101 306.829101 
L 509.427907 302.607907 
L 505.206713 298.386713 
L 500.985519 294.165519 
L 496.764325 289.944325 
L 492.54313 285.72313 
L 488.321936 281.501936 
L 484.100742 277.280742 
L 479.879548 273.059548 
L 475.658354 268.838354 
L 471.437159 264.617159 
L 467.215965 260.395965 
L 462.994771 256.174771 
L 458.773577 251.953577 
L 454.552383 247.732383 
L 450.331188 243.511188 
L 446.109994 239.289994 
L 441.8888 235.0688 
L 437.667606 230.847606 
L 433.446411 226.626411 
L 429.225217 222.405217 
L 425.004023 218.184023 
L 420.782829 213.962829 
L 416.561635 209.741635 
L 412.34044 205.52044 
L 408.119246 201.299246 
L 403.898052 197.078052 
L 399.676858 192.856858 
L 395.455664 188.635664 
L 391.234469 184.414469 
L 387.013275 180.193275 
L 382.792081 175.972081 
L 378.570887 171.750887 
L 374.349693 167.529693 
L 370.128498 163.308498 
L 365.907304 159.087304 
L 361.68611 154.86611 
L 357.464916 150.644916 
L 353.243722 146.423722 
L 349.022527 142.202527 
L 344.801333 137.981333 
L 340.580139 133.760139 
L 336.358945 129.538945 
L 332.137751 125.317751 
L 327.916556 121.096556 
L 323.695362 116.875362 
L 319.474168 112.654168 
L 315.252974 108.432974 
L 311.031779 104.211779 
L 306.810585 99.990585 
L 302.589391 95.769391 
L 298.368197 91.548197 
L 294.147003 87.327003 
L 289.925808 83.105808 
L 285.704614 78.884614 
L 281.48342 74.66342 
L 277.262226 70.442226 
L 273.041032 66.221032 
L 268.819837 61.999837 
L 264.598643 57.778643 
L 260.377449 53.557449 
L 256.156255 49.336255 
L 251.935061 45.115061 
L 247.713866 40.893866 
L 243.492672 36.672672 
L 239.271478 32.451478 
L 235.050284 28.230284 
L 230.82909 24.00909 
L 226.607895 19.787895 
L 222.386701 15.566701 
L 218.165507 11.345507 
L 213.944313 7.124313 
L 209.723119 2.903119 
L 205.501924 -1.318076 
L 201.28073 -5.53927 
L 197.059536 -9.760464 
L 192.838342 -13.981658 
L 188.617148 -18.202852 
L 184.395953 -22.424047 
L 180.174759 -26.645241 
L 175.953565 -30.866435 
L 171.732371 -35.087629 
L 167.511176 -39.308824 
z
" clip-path="url(#p9730442f6c)" style="fill: url(#h055e76a522); fill-opacity: 0.08"/>
   </g>
   <g id="line2d_7">
    <path d="M 167.511176 165.573529 
L 650.937647 649 
L 650.937647 649 
" clip-path="url(#p9730442f6c)" style="fill: none; stroke: #55e7ff; stroke-width: 2.7; stroke-linecap: square"/>
   </g>
   <g id="line2d_8">
    <path d="M 205.82 -1 
L 855.82 649 
L 855.82 649 
" clip-path="url(#p9730442f6c)" style="fill: none; stroke: #ff63ce; stroke-width: 2.7; stroke-linecap: square"/>
   </g>
   <g id="patch_2">
    <path d="M 167.511176 442.164706 
Q 581.373529 442.164706 993.558831 442.164706 
" style="fill: none; stroke: #8aabc0; stroke-width: 1.5; stroke-linecap: round"/>
    <path d="M 985.558831 438.164706 
L 993.558831 442.164706 
L 985.558831 446.164706 
z
" style="fill: #8aabc0; stroke: #8aabc0; stroke-width: 1.5; stroke-linecap: round"/>
   </g>
   <g id="patch_3">
    <path d="M 341.661176 589.68 
Q 341.661176 319.235294 341.661176 50.467639 
" style="fill: none; stroke: #8aabc0; stroke-width: 1.5; stroke-linecap: round"/>
    <path d="M 337.661176 58.467639 
L 341.661176 50.467639 
L 345.661176 58.467639 
z
" style="fill: #8aabc0; stroke: #8aabc0; stroke-width: 1.5; stroke-linecap: round"/>
   </g>
   <g id="text_1">
    <!-- $x_1$ -->
    <g style="fill: #8aabc0" transform="translate(960.405882 497.131158) scale(0.21 -0.21)">
     <defs>
      <path id="DejaVuSans-Oblique-78" d="M 3841 3500 
L 2234 1784 
L 3219 0 
L 2559 0 
L 1819 1388 
L 531 0 
L -166 0 
L 1556 1844 
L 641 3500 
L 1300 3500 
L 1972 2234 
L 3144 3500 
L 3841 3500 
z
" transform="scale(0.015625)"/>
      <path id="DejaVuSans-31" d="M 794 531 
L 1825 531 
L 1825 4091 
L 703 3866 
L 703 4441 
L 1819 4666 
L 2450 4666 
L 2450 531 
L 3481 531 
L 3481 0 
L 794 0 
L 794 531 
z
" transform="scale(0.015625)"/>
     </defs>
     <use xlink:href="#DejaVuSans-Oblique-78" transform="translate(0 0.3125)"/>
     <use xlink:href="#DejaVuSans-31" transform="translate(59.179688 -16.09375) scale(0.7)"/>
    </g>
   </g>
   <g id="text_2">
    <!-- $x_2$ -->
    <g style="fill: #8aabc0" transform="translate(267.970588 75.073511) scale(0.21 -0.21)">
     <defs>
      <path id="DejaVuSans-32" d="M 1228 531 
L 3431 531 
L 3431 0 
L 469 0 
L 469 531 
Q 828 903 1448 1529 
Q 2069 2156 2228 2338 
Q 2531 2678 2651 2914 
Q 2772 3150 2772 3378 
Q 2772 3750 2511 3984 
Q 2250 4219 1831 4219 
Q 1534 4219 1204 4116 
Q 875 4013 500 3803 
L 500 4441 
Q 881 4594 1212 4672 
Q 1544 4750 1819 4750 
Q 2544 4750 2975 4387 
Q 3406 4025 3406 3419 
Q 3406 3131 3298 2873 
Q 3191 2616 2906 2266 
Q 2828 2175 2409 1742 
Q 1991 1309 1228 531 
z
" transform="scale(0.015625)"/>
     </defs>
     <use xlink:href="#DejaVuSans-Oblique-78" transform="translate(0 0.3125)"/>
     <use xlink:href="#DejaVuSans-32" transform="translate(59.179688 -16.09375) scale(0.7)"/>
    </g>
   </g>
   <g id="text_3">
    <!-- $(0,0)$ -->
    <g style="fill: #55e7ff" transform="translate(233.073529 496.855221) scale(0.2 -0.2)">
     <defs>
      <path id="DejaVuSans-28" d="M 1984 4856 
Q 1566 4138 1362 3434 
Q 1159 2731 1159 2009 
Q 1159 1288 1364 580 
Q 1569 -128 1984 -844 
L 1484 -844 
Q 1016 -109 783 600 
Q 550 1309 550 2009 
Q 550 2706 781 3412 
Q 1013 4119 1484 4856 
L 1984 4856 
z
" transform="scale(0.015625)"/>
      <path id="DejaVuSans-30" d="M 2034 4250 
Q 1547 4250 1301 3770 
Q 1056 3291 1056 2328 
Q 1056 1369 1301 889 
Q 1547 409 2034 409 
Q 2525 409 2770 889 
Q 3016 1369 3016 2328 
Q 3016 3291 2770 3770 
Q 2525 4250 2034 4250 
z
M 2034 4750 
Q 2819 4750 3233 4129 
Q 3647 3509 3647 2328 
Q 3647 1150 3233 529 
Q 2819 -91 2034 -91 
Q 1250 -91 836 529 
Q 422 1150 422 2328 
Q 422 3509 836 4129 
Q 1250 4750 2034 4750 
z
" transform="scale(0.015625)"/>
      <path id="DejaVuSans-2c" d="M 750 794 
L 1409 794 
L 1409 256 
L 897 -744 
L 494 -744 
L 750 256 
L 750 794 
z
" transform="scale(0.015625)"/>
      <path id="DejaVuSans-29" d="M 513 4856 
L 1013 4856 
Q 1481 4119 1714 3412 
Q 1947 2706 1947 2009 
Q 1947 1309 1714 600 
Q 1481 -109 1013 -844 
L 513 -844 
Q 928 -128 1133 580 
Q 1338 1288 1338 2009 
Q 1338 2731 1133 3434 
Q 928 4138 513 4856 
z
" transform="scale(0.015625)"/>
     </defs>
     <use xlink:href="#DejaVuSans-28" transform="translate(0 0.125)"/>
     <use xlink:href="#DejaVuSans-30" transform="translate(39.013672 0.125)"/>
     <use xlink:href="#DejaVuSans-2c" transform="translate(102.636719 0.125)"/>
     <use xlink:href="#DejaVuSans-30" transform="translate(153.90625 0.125)"/>
     <use xlink:href="#DejaVuSans-29" transform="translate(217.529297 0.125)"/>
    </g>
   </g>
   <g id="text_4">
    <!-- $(0,1)$ -->
    <g style="fill: #ff63ce" transform="translate(233.073529 207.971103) scale(0.2 -0.2)">
     <use xlink:href="#DejaVuSans-28" transform="translate(0 0.125)"/>
     <use xlink:href="#DejaVuSans-30" transform="translate(39.013672 0.125)"/>
     <use xlink:href="#DejaVuSans-2c" transform="translate(102.636719 0.125)"/>
     <use xlink:href="#DejaVuSans-31" transform="translate(153.90625 0.125)"/>
     <use xlink:href="#DejaVuSans-29" transform="translate(217.529297 0.125)"/>
    </g>
   </g>
   <g id="text_5">
    <!-- $(1,0)$ -->
    <g style="fill: #ff63ce" transform="translate(567.031765 496.855221) scale(0.2 -0.2)">
     <use xlink:href="#DejaVuSans-28" transform="translate(0 0.125)"/>
     <use xlink:href="#DejaVuSans-31" transform="translate(39.013672 0.125)"/>
     <use xlink:href="#DejaVuSans-2c" transform="translate(102.636719 0.125)"/>
     <use xlink:href="#DejaVuSans-30" transform="translate(153.90625 0.125)"/>
     <use xlink:href="#DejaVuSans-29" transform="translate(217.529297 0.125)"/>
    </g>
   </g>
   <g id="text_6">
    <!-- $(1,1)$ -->
    <g style="fill: #55e7ff" transform="translate(567.031765 207.971103) scale(0.2 -0.2)">
     <use xlink:href="#DejaVuSans-28" transform="translate(0 0.125)"/>
     <use xlink:href="#DejaVuSans-31" transform="translate(39.013672 0.125)"/>
     <use xlink:href="#DejaVuSans-2c" transform="translate(102.636719 0.125)"/>
     <use xlink:href="#DejaVuSans-31" transform="translate(153.90625 0.125)"/>
     <use xlink:href="#DejaVuSans-29" transform="translate(217.529297 0.125)"/>
    </g>
   </g>
   <g id="text_7">
    <!-- $x_1+x_2=0.5$ -->
    <g style="fill: #55e7ff" transform="translate(657.18 72.74875) scale(0.2 -0.2)">
     <defs>
      <path id="DejaVuSans-2b" d="M 2944 4013 
L 2944 2272 
L 4684 2272 
L 4684 1741 
L 2944 1741 
L 2944 0 
L 2419 0 
L 2419 1741 
L 678 1741 
L 678 2272 
L 2419 2272 
L 2419 4013 
L 2944 4013 
z
" transform="scale(0.015625)"/>
      <path id="DejaVuSans-3d" d="M 678 2906 
L 4684 2906 
L 4684 2381 
L 678 2381 
L 678 2906 
z
M 678 1631 
L 4684 1631 
L 4684 1100 
L 678 1100 
L 678 1631 
z
" transform="scale(0.015625)"/>
      <path id="DejaVuSans-2e" d="M 684 794 
L 1344 794 
L 1344 0 
L 684 0 
L 684 794 
z
" transform="scale(0.015625)"/>
      <path id="DejaVuSans-35" d="M 691 4666 
L 3169 4666 
L 3169 4134 
L 1269 4134 
L 1269 2991 
Q 1406 3038 1543 3061 
Q 1681 3084 1819 3084 
Q 2600 3084 3056 2656 
Q 3513 2228 3513 1497 
Q 3513 744 3044 326 
Q 2575 -91 1722 -91 
Q 1428 -91 1123 -41 
Q 819 9 494 109 
L 494 744 
Q 775 591 1075 516 
Q 1375 441 1709 441 
Q 2250 441 2565 725 
Q 2881 1009 2881 1497 
Q 2881 1984 2565 2268 
Q 2250 2553 1709 2553 
Q 1456 2553 1204 2497 
Q 953 2441 691 2322 
L 691 4666 
z
" transform="scale(0.015625)"/>
     </defs>
     <use xlink:href="#DejaVuSans-Oblique-78" transform="translate(0 0.78125)"/>
     <use xlink:href="#DejaVuSans-31" transform="translate(59.179688 -15.625) scale(0.7)"/>
     <use xlink:href="#DejaVuSans-2b" transform="translate(125.932617 0.78125)"/>
     <use xlink:href="#DejaVuSans-Oblique-78" transform="translate(229.204102 0.78125)"/>
     <use xlink:href="#DejaVuSans-32" transform="translate(288.383789 -15.625) scale(0.7)"/>
     <use xlink:href="#DejaVuSans-3d" transform="translate(355.136719 0.78125)"/>
     <use xlink:href="#DejaVuSans-30" transform="translate(458.408203 0.78125)"/>
     <use xlink:href="#DejaVuSans-2e" transform="translate(522.03125 0.78125)"/>
     <use xlink:href="#DejaVuSans-35" transform="translate(553.818359 0.78125)"/>
    </g>
   </g>
   <g id="text_8">
    <!-- $-x_1-x_2=-1.5$ -->
    <g style="fill: #ff63ce" transform="translate(657.18 130.115809) scale(0.2 -0.2)">
     <defs>
      <path id="DejaVuSans-2212" d="M 678 2272 
L 4684 2272 
L 4684 1741 
L 678 1741 
L 678 2272 
z
" transform="scale(0.015625)"/>
     </defs>
     <use xlink:href="#DejaVuSans-2212" transform="translate(0 0.09375)"/>
     <use xlink:href="#DejaVuSans-Oblique-78" transform="translate(83.789062 0.09375)"/>
     <use xlink:href="#DejaVuSans-31" transform="translate(142.96875 -16.3125) scale(0.7)"/>
     <use xlink:href="#DejaVuSans-2212" transform="translate(209.72168 0.09375)"/>
     <use xlink:href="#DejaVuSans-Oblique-78" transform="translate(312.993164 0.09375)"/>
     <use xlink:href="#DejaVuSans-32" transform="translate(372.172852 -16.3125) scale(0.7)"/>
     <use xlink:href="#DejaVuSans-3d" transform="translate(438.925781 0.09375)"/>
     <use xlink:href="#DejaVuSans-2212" transform="translate(542.197266 0.09375)"/>
     <use xlink:href="#DejaVuSans-31" transform="translate(625.986328 0.09375)"/>
     <use xlink:href="#DejaVuSans-2e" transform="translate(689.609375 0.09375)"/>
     <use xlink:href="#DejaVuSans-35" transform="translate(721.396484 0.09375)"/>
    </g>
   </g>
   <g id="patch_4">
    <path d="M 700.205294 364.309412 
Q 738.108529 326.406176 773.79817 290.716536 
" style="fill: none; stroke: #76f5b2; stroke-width: 2.8; stroke-linecap: round"/>
    <path d="M 765.312889 293.544963 
L 773.79817 290.716536 
L 770.969743 299.201817 
z
" style="fill: #76f5b2; stroke: #76f5b2; stroke-width: 2.8; stroke-linecap: round"/>
   </g>
   <g id="text_9">
    <!-- $w^{1\prime}=(1,1)$ -->
    <g style="fill: #76f5b2" transform="translate(755.523529 412.951268) scale(0.18 -0.18)">
     <defs>
      <path id="DejaVuSans-Oblique-77" d="M 544 3500 
L 1113 3500 
L 1259 684 
L 2566 3500 
L 3231 3500 
L 3425 684 
L 4666 3500 
L 5241 3500 
L 3641 0 
L 2969 0 
L 2797 2900 
L 1459 0 
L 781 0 
L 544 3500 
z
" transform="scale(0.015625)"/>
      <path id="Cmsy10-30" d="M 225 347 
Q 184 359 184 409 
L 966 3316 
Q 1003 3434 1093 3506 
Q 1184 3578 1300 3578 
Q 1450 3578 1564 3479 
Q 1678 3381 1678 3231 
Q 1678 3166 1644 3084 
L 488 319 
Q 466 275 428 275 
Q 394 275 320 306 
Q 247 338 225 347 
z
" transform="scale(0.015625)"/>
     </defs>
     <use xlink:href="#DejaVuSans-Oblique-77" transform="translate(0 0.684375)"/>
     <use xlink:href="#DejaVuSans-31" transform="translate(86.253255 38.965625) scale(0.7)"/>
     <use xlink:href="#Cmsy10-30" transform="translate(130.789388 38.965625) scale(0.7)"/>
     <use xlink:href="#DejaVuSans-3d" transform="translate(172.249349 0.684375)"/>
     <use xlink:href="#DejaVuSans-28" transform="translate(275.520833 0.684375)"/>
     <use xlink:href="#DejaVuSans-31" transform="translate(314.534505 0.684375)"/>
     <use xlink:href="#DejaVuSans-2c" transform="translate(378.157552 0.684375)"/>
     <use xlink:href="#DejaVuSans-31" transform="translate(429.427083 0.684375)"/>
     <use xlink:href="#DejaVuSans-29" transform="translate(493.05013 0.684375)"/>
    </g>
   </g>
   <g id="patch_5">
    <path d="M 776.011765 171.72 
Q 738.108529 209.623235 702.418888 245.312876 
" style="fill: none; stroke: #ffd17c; stroke-width: 2.8; stroke-linecap: round"/>
    <path d="M 710.90417 242.484449 
L 702.418888 245.312876 
L 705.247316 236.827595 
z
" style="fill: #ffd17c; stroke: #ffd17c; stroke-width: 2.8; stroke-linecap: round"/>
   </g>
   <g id="text_10">
    <!-- $w^{2\prime}=(-1,-1)$ -->
    <g style="fill: #ffd17c" transform="translate(784.207059 210.207739) scale(0.18 -0.18)">
     <use xlink:href="#DejaVuSans-Oblique-77" transform="translate(0 0.765625)"/>
     <use xlink:href="#DejaVuSans-32" transform="translate(86.253255 39.046875) scale(0.7)"/>
     <use xlink:href="#Cmsy10-30" transform="translate(130.789388 39.046875) scale(0.7)"/>
     <use xlink:href="#DejaVuSans-3d" transform="translate(172.249349 0.765625)"/>
     <use xlink:href="#DejaVuSans-28" transform="translate(275.520833 0.765625)"/>
     <use xlink:href="#DejaVuSans-2212" transform="translate(314.534505 0.765625)"/>
     <use xlink:href="#DejaVuSans-31" transform="translate(398.323568 0.765625)"/>
     <use xlink:href="#DejaVuSans-2c" transform="translate(461.946615 0.765625)"/>
     <use xlink:href="#DejaVuSans-2212" transform="translate(532.698568 0.765625)"/>
     <use xlink:href="#DejaVuSans-31" transform="translate(635.970052 0.765625)"/>
     <use xlink:href="#DejaVuSans-29" transform="translate(699.593099 0.765625)"/>
    </g>
   </g>
   <g id="PathCollection_1">
    <defs>
     <path id="ma7cff0ec52" d="M 0 6.708204 
C 1.779036 6.708204 3.485448 6.001385 4.743416 4.743416 
C 6.001385 3.485448 6.708204 1.779036 6.708204 0 
C 6.708204 -1.779036 6.001385 -3.485448 4.743416 -4.743416 
C 3.485448 -6.001385 1.779036 -6.708204 0 -6.708204 
C -1.779036 -6.708204 -3.485448 -6.001385 -4.743416 -4.743416 
C -6.001385 -3.485448 -6.708204 -1.779036 -6.708204 0 
C -6.708204 1.779036 -6.001385 3.485448 -4.743416 4.743416 
C -3.485448 6.001385 -1.779036 6.708204 0 6.708204 
z
" style="stroke: #080e17; stroke-width: 1.6"/>
    </defs>
    <g clip-path="url(#p9730442f6c)">
     <use xlink:href="#ma7cff0ec52" x="341.661176" y="442.164706" style="fill: #55e7ff; stroke: #080e17; stroke-width: 1.6"/>
    </g>
   </g>
   <g id="PathCollection_2">
    <defs>
     <path id="m46e1fdeb61" d="M 0 6.708204 
C 1.779036 6.708204 3.485448 6.001385 4.743416 4.743416 
C 6.001385 3.485448 6.708204 1.779036 6.708204 0 
C 6.708204 -1.779036 6.001385 -3.485448 4.743416 -4.743416 
C 3.485448 -6.001385 1.779036 -6.708204 0 -6.708204 
C -1.779036 -6.708204 -3.485448 -6.001385 -4.743416 -4.743416 
C -6.001385 -3.485448 -6.708204 -1.779036 -6.708204 0 
C -6.708204 1.779036 -6.001385 3.485448 -4.743416 4.743416 
C -3.485448 6.001385 -1.779036 6.708204 0 6.708204 
z
" style="stroke: #080e17; stroke-width: 1.6"/>
    </defs>
    <g clip-path="url(#p9730442f6c)">
     <use xlink:href="#m46e1fdeb61" x="341.661176" y="237.282353" style="fill: #ff63ce; stroke: #080e17; stroke-width: 1.6"/>
    </g>
   </g>
   <g id="PathCollection_3">
    <g clip-path="url(#p9730442f6c)">
     <use xlink:href="#m46e1fdeb61" x="546.543529" y="442.164706" style="fill: #ff63ce; stroke: #080e17; stroke-width: 1.6"/>
    </g>
   </g>
   <g id="PathCollection_4">
    <g clip-path="url(#p9730442f6c)">
     <use xlink:href="#ma7cff0ec52" x="546.543529" y="237.282353" style="fill: #55e7ff; stroke: #080e17; stroke-width: 1.6"/>
    </g>
   </g>
  </g>
  <g id="text_11">
   <!-- Output AND acts on hidden outputs:  $w^{3\prime}=(1,1)$ -->
   <g style="fill: #8aabc0" transform="translate(382.5 629.856) scale(0.17 -0.17)">
    <defs>
     <path id="DejaVuSans-4f" d="M 2522 4238 
Q 1834 4238 1429 3725 
Q 1025 3213 1025 2328 
Q 1025 1447 1429 934 
Q 1834 422 2522 422 
Q 3209 422 3611 934 
Q 4013 1447 4013 2328 
Q 4013 3213 3611 3725 
Q 3209 4238 2522 4238 
z
M 2522 4750 
Q 3503 4750 4090 4092 
Q 4678 3434 4678 2328 
Q 4678 1225 4090 567 
Q 3503 -91 2522 -91 
Q 1538 -91 948 565 
Q 359 1222 359 2328 
Q 359 3434 948 4092 
Q 1538 4750 2522 4750 
z
" transform="scale(0.015625)"/>
     <path id="DejaVuSans-75" d="M 544 1381 
L 544 3500 
L 1119 3500 
L 1119 1403 
Q 1119 906 1312 657 
Q 1506 409 1894 409 
Q 2359 409 2629 706 
Q 2900 1003 2900 1516 
L 2900 3500 
L 3475 3500 
L 3475 0 
L 2900 0 
L 2900 538 
Q 2691 219 2414 64 
Q 2138 -91 1772 -91 
Q 1169 -91 856 284 
Q 544 659 544 1381 
z
M 1991 3584 
L 1991 3584 
z
" transform="scale(0.015625)"/>
     <path id="DejaVuSans-74" d="M 1172 4494 
L 1172 3500 
L 2356 3500 
L 2356 3053 
L 1172 3053 
L 1172 1153 
Q 1172 725 1289 603 
Q 1406 481 1766 481 
L 2356 481 
L 2356 0 
L 1766 0 
Q 1100 0 847 248 
Q 594 497 594 1153 
L 594 3053 
L 172 3053 
L 172 3500 
L 594 3500 
L 594 4494 
L 1172 4494 
z
" transform="scale(0.015625)"/>
     <path id="DejaVuSans-70" d="M 1159 525 
L 1159 -1331 
L 581 -1331 
L 581 3500 
L 1159 3500 
L 1159 2969 
Q 1341 3281 1617 3432 
Q 1894 3584 2278 3584 
Q 2916 3584 3314 3078 
Q 3713 2572 3713 1747 
Q 3713 922 3314 415 
Q 2916 -91 2278 -91 
Q 1894 -91 1617 61 
Q 1341 213 1159 525 
z
M 3116 1747 
Q 3116 2381 2855 2742 
Q 2594 3103 2138 3103 
Q 1681 3103 1420 2742 
Q 1159 2381 1159 1747 
Q 1159 1113 1420 752 
Q 1681 391 2138 391 
Q 2594 391 2855 752 
Q 3116 1113 3116 1747 
z
" transform="scale(0.015625)"/>
     <path id="DejaVuSans-20" transform="scale(0.015625)"/>
     <path id="DejaVuSans-41" d="M 2188 4044 
L 1331 1722 
L 3047 1722 
L 2188 4044 
z
M 1831 4666 
L 2547 4666 
L 4325 0 
L 3669 0 
L 3244 1197 
L 1141 1197 
L 716 0 
L 50 0 
L 1831 4666 
z
" transform="scale(0.015625)"/>
     <path id="DejaVuSans-4e" d="M 628 4666 
L 1478 4666 
L 3547 763 
L 3547 4666 
L 4159 4666 
L 4159 0 
L 3309 0 
L 1241 3903 
L 1241 0 
L 628 0 
L 628 4666 
z
" transform="scale(0.015625)"/>
     <path id="DejaVuSans-44" d="M 1259 4147 
L 1259 519 
L 2022 519 
Q 2988 519 3436 956 
Q 3884 1394 3884 2338 
Q 3884 3275 3436 3711 
Q 2988 4147 2022 4147 
L 1259 4147 
z
M 628 4666 
L 1925 4666 
Q 3281 4666 3915 4102 
Q 4550 3538 4550 2338 
Q 4550 1131 3912 565 
Q 3275 0 1925 0 
L 628 0 
L 628 4666 
z
" transform="scale(0.015625)"/>
     <path id="DejaVuSans-61" d="M 2194 1759 
Q 1497 1759 1228 1600 
Q 959 1441 959 1056 
Q 959 750 1161 570 
Q 1363 391 1709 391 
Q 2188 391 2477 730 
Q 2766 1069 2766 1631 
L 2766 1759 
L 2194 1759 
z
M 3341 1997 
L 3341 0 
L 2766 0 
L 2766 531 
Q 2569 213 2275 61 
Q 1981 -91 1556 -91 
Q 1019 -91 701 211 
Q 384 513 384 1019 
Q 384 1609 779 1909 
Q 1175 2209 1959 2209 
L 2766 2209 
L 2766 2266 
Q 2766 2663 2505 2880 
Q 2244 3097 1772 3097 
Q 1472 3097 1187 3025 
Q 903 2953 641 2809 
L 641 3341 
Q 956 3463 1253 3523 
Q 1550 3584 1831 3584 
Q 2591 3584 2966 3190 
Q 3341 2797 3341 1997 
z
" transform="scale(0.015625)"/>
     <path id="DejaVuSans-63" d="M 3122 3366 
L 3122 2828 
Q 2878 2963 2633 3030 
Q 2388 3097 2138 3097 
Q 1578 3097 1268 2742 
Q 959 2388 959 1747 
Q 959 1106 1268 751 
Q 1578 397 2138 397 
Q 2388 397 2633 464 
Q 2878 531 3122 666 
L 3122 134 
Q 2881 22 2623 -34 
Q 2366 -91 2075 -91 
Q 1284 -91 818 406 
Q 353 903 353 1747 
Q 353 2603 823 3093 
Q 1294 3584 2113 3584 
Q 2378 3584 2631 3529 
Q 2884 3475 3122 3366 
z
" transform="scale(0.015625)"/>
     <path id="DejaVuSans-73" d="M 2834 3397 
L 2834 2853 
Q 2591 2978 2328 3040 
Q 2066 3103 1784 3103 
Q 1356 3103 1142 2972 
Q 928 2841 928 2578 
Q 928 2378 1081 2264 
Q 1234 2150 1697 2047 
L 1894 2003 
Q 2506 1872 2764 1633 
Q 3022 1394 3022 966 
Q 3022 478 2636 193 
Q 2250 -91 1575 -91 
Q 1294 -91 989 -36 
Q 684 19 347 128 
L 347 722 
Q 666 556 975 473 
Q 1284 391 1588 391 
Q 1994 391 2212 530 
Q 2431 669 2431 922 
Q 2431 1156 2273 1281 
Q 2116 1406 1581 1522 
L 1381 1569 
Q 847 1681 609 1914 
Q 372 2147 372 2553 
Q 372 3047 722 3315 
Q 1072 3584 1716 3584 
Q 2034 3584 2315 3537 
Q 2597 3491 2834 3397 
z
" transform="scale(0.015625)"/>
     <path id="DejaVuSans-6f" d="M 1959 3097 
Q 1497 3097 1228 2736 
Q 959 2375 959 1747 
Q 959 1119 1226 758 
Q 1494 397 1959 397 
Q 2419 397 2687 759 
Q 2956 1122 2956 1747 
Q 2956 2369 2687 2733 
Q 2419 3097 1959 3097 
z
M 1959 3584 
Q 2709 3584 3137 3096 
Q 3566 2609 3566 1747 
Q 3566 888 3137 398 
Q 2709 -91 1959 -91 
Q 1206 -91 779 398 
Q 353 888 353 1747 
Q 353 2609 779 3096 
Q 1206 3584 1959 3584 
z
" transform="scale(0.015625)"/>
     <path id="DejaVuSans-6e" d="M 3513 2113 
L 3513 0 
L 2938 0 
L 2938 2094 
Q 2938 2591 2744 2837 
Q 2550 3084 2163 3084 
Q 1697 3084 1428 2787 
Q 1159 2491 1159 1978 
L 1159 0 
L 581 0 
L 581 3500 
L 1159 3500 
L 1159 2956 
Q 1366 3272 1645 3428 
Q 1925 3584 2291 3584 
Q 2894 3584 3203 3211 
Q 3513 2838 3513 2113 
z
" transform="scale(0.015625)"/>
     <path id="DejaVuSans-68" d="M 3513 2113 
L 3513 0 
L 2938 0 
L 2938 2094 
Q 2938 2591 2744 2837 
Q 2550 3084 2163 3084 
Q 1697 3084 1428 2787 
Q 1159 2491 1159 1978 
L 1159 0 
L 581 0 
L 581 4863 
L 1159 4863 
L 1159 2956 
Q 1366 3272 1645 3428 
Q 1925 3584 2291 3584 
Q 2894 3584 3203 3211 
Q 3513 2838 3513 2113 
z
" transform="scale(0.015625)"/>
     <path id="DejaVuSans-69" d="M 603 3500 
L 1178 3500 
L 1178 0 
L 603 0 
L 603 3500 
z
M 603 4863 
L 1178 4863 
L 1178 4134 
L 603 4134 
L 603 4863 
z
" transform="scale(0.015625)"/>
     <path id="DejaVuSans-64" d="M 2906 2969 
L 2906 4863 
L 3481 4863 
L 3481 0 
L 2906 0 
L 2906 525 
Q 2725 213 2448 61 
Q 2172 -91 1784 -91 
Q 1150 -91 751 415 
Q 353 922 353 1747 
Q 353 2572 751 3078 
Q 1150 3584 1784 3584 
Q 2172 3584 2448 3432 
Q 2725 3281 2906 2969 
z
M 947 1747 
Q 947 1113 1208 752 
Q 1469 391 1925 391 
Q 2381 391 2643 752 
Q 2906 1113 2906 1747 
Q 2906 2381 2643 2742 
Q 2381 3103 1925 3103 
Q 1469 3103 1208 2742 
Q 947 2381 947 1747 
z
" transform="scale(0.015625)"/>
     <path id="DejaVuSans-65" d="M 3597 1894 
L 3597 1613 
L 953 1613 
Q 991 1019 1311 708 
Q 1631 397 2203 397 
Q 2534 397 2845 478 
Q 3156 559 3463 722 
L 3463 178 
Q 3153 47 2828 -22 
Q 2503 -91 2169 -91 
Q 1331 -91 842 396 
Q 353 884 353 1716 
Q 353 2575 817 3079 
Q 1281 3584 2069 3584 
Q 2775 3584 3186 3129 
Q 3597 2675 3597 1894 
z
M 3022 2063 
Q 3016 2534 2758 2815 
Q 2500 3097 2075 3097 
Q 1594 3097 1305 2825 
Q 1016 2553 972 2059 
L 3022 2063 
z
" transform="scale(0.015625)"/>
     <path id="DejaVuSans-3a" d="M 750 794 
L 1409 794 
L 1409 0 
L 750 0 
L 750 794 
z
M 750 3309 
L 1409 3309 
L 1409 2516 
L 750 2516 
L 750 3309 
z
" transform="scale(0.015625)"/>
     <path id="DejaVuSans-33" d="M 2597 2516 
Q 3050 2419 3304 2112 
Q 3559 1806 3559 1356 
Q 3559 666 3084 287 
Q 2609 -91 1734 -91 
Q 1441 -91 1130 -33 
Q 819 25 488 141 
L 488 750 
Q 750 597 1062 519 
Q 1375 441 1716 441 
Q 2309 441 2620 675 
Q 2931 909 2931 1356 
Q 2931 1769 2642 2001 
Q 2353 2234 1838 2234 
L 1294 2234 
L 1294 2753 
L 1863 2753 
Q 2328 2753 2575 2939 
Q 2822 3125 2822 3475 
Q 2822 3834 2567 4026 
Q 2313 4219 1838 4219 
Q 1578 4219 1281 4162 
Q 984 4106 628 3988 
L 628 4550 
Q 988 4650 1302 4700 
Q 1616 4750 1894 4750 
Q 2613 4750 3031 4423 
Q 3450 4097 3450 3541 
Q 3450 3153 3228 2886 
Q 3006 2619 2597 2516 
z
" transform="scale(0.015625)"/>
    </defs>
    <use xlink:href="#DejaVuSans-4f" transform="translate(0 0.765625)"/>
    <use xlink:href="#DejaVuSans-75" transform="translate(78.710938 0.765625)"/>
    <use xlink:href="#DejaVuSans-74" transform="translate(142.089844 0.765625)"/>
    <use xlink:href="#DejaVuSans-70" transform="translate(181.298828 0.765625)"/>
    <use xlink:href="#DejaVuSans-75" transform="translate(244.775391 0.765625)"/>
    <use xlink:href="#DejaVuSans-74" transform="translate(308.154297 0.765625)"/>
    <use xlink:href="#DejaVuSans-20" transform="translate(347.363281 0.765625)"/>
    <use xlink:href="#DejaVuSans-41" transform="translate(379.150391 0.765625)"/>
    <use xlink:href="#DejaVuSans-4e" transform="translate(447.558594 0.765625)"/>
    <use xlink:href="#DejaVuSans-44" transform="translate(520.613281 0.765625)"/>
    <use xlink:href="#DejaVuSans-20" transform="translate(597.615234 0.765625)"/>
    <use xlink:href="#DejaVuSans-61" transform="translate(629.402344 0.765625)"/>
    <use xlink:href="#DejaVuSans-63" transform="translate(690.681641 0.765625)"/>
    <use xlink:href="#DejaVuSans-74" transform="translate(745.662109 0.765625)"/>
    <use xlink:href="#DejaVuSans-73" transform="translate(784.871094 0.765625)"/>
    <use xlink:href="#DejaVuSans-20" transform="translate(836.970703 0.765625)"/>
    <use xlink:href="#DejaVuSans-6f" transform="translate(868.757812 0.765625)"/>
    <use xlink:href="#DejaVuSans-6e" transform="translate(929.939453 0.765625)"/>
    <use xlink:href="#DejaVuSans-20" transform="translate(993.318359 0.765625)"/>
    <use xlink:href="#DejaVuSans-68" transform="translate(1025.105469 0.765625)"/>
    <use xlink:href="#DejaVuSans-69" transform="translate(1088.484375 0.765625)"/>
    <use xlink:href="#DejaVuSans-64" transform="translate(1116.267578 0.765625)"/>
    <use xlink:href="#DejaVuSans-64" transform="translate(1179.744141 0.765625)"/>
    <use xlink:href="#DejaVuSans-65" transform="translate(1243.220703 0.765625)"/>
    <use xlink:href="#DejaVuSans-6e" transform="translate(1304.744141 0.765625)"/>
    <use xlink:href="#DejaVuSans-20" transform="translate(1368.123047 0.765625)"/>
    <use xlink:href="#DejaVuSans-6f" transform="translate(1399.910156 0.765625)"/>
    <use xlink:href="#DejaVuSans-75" transform="translate(1461.091797 0.765625)"/>
    <use xlink:href="#DejaVuSans-74" transform="translate(1524.470703 0.765625)"/>
    <use xlink:href="#DejaVuSans-70" transform="translate(1563.679688 0.765625)"/>
    <use xlink:href="#DejaVuSans-75" transform="translate(1627.15625 0.765625)"/>
    <use xlink:href="#DejaVuSans-74" transform="translate(1690.535156 0.765625)"/>
    <use xlink:href="#DejaVuSans-73" transform="translate(1729.744141 0.765625)"/>
    <use xlink:href="#DejaVuSans-3a" transform="translate(1781.84375 0.765625)"/>
    <use xlink:href="#DejaVuSans-20" transform="translate(1815.535156 0.765625)"/>
    <use xlink:href="#DejaVuSans-20" transform="translate(1847.322266 0.765625)"/>
    <use xlink:href="#DejaVuSans-Oblique-77" transform="translate(1879.109375 0.765625)"/>
    <use xlink:href="#DejaVuSans-33" transform="translate(1965.36263 39.046875) scale(0.7)"/>
    <use xlink:href="#Cmsy10-30" transform="translate(2009.898763 39.046875) scale(0.7)"/>
    <use xlink:href="#DejaVuSans-3d" transform="translate(2051.358724 0.765625)"/>
    <use xlink:href="#DejaVuSans-28" transform="translate(2154.630208 0.765625)"/>
    <use xlink:href="#DejaVuSans-31" transform="translate(2193.64388 0.765625)"/>
    <use xlink:href="#DejaVuSans-2c" transform="translate(2257.266927 0.765625)"/>
    <use xlink:href="#DejaVuSans-31" transform="translate(2308.536458 0.765625)"/>
    <use xlink:href="#DejaVuSans-29" transform="translate(2372.159505 0.765625)"/>
   </g>
  </g>
 </g>
 <defs>
  <clipPath id="p9730442f6c">
   <rect x="167.511176" y="32.4" width="840.017647" height="557.28"/>
  </clipPath>
 </defs>
 <defs>
  <pattern id="h055e76a522" patternUnits="userSpaceOnUse" x="0" y="0" width="72" height="72">
   <rect x="0" y="0" width="73" height="73" fill="#ff63ce"/>
   <path d="M -36 36 
L 36 -36 
M -30 42 
L 42 -30 
M -24 48 
L 48 -24 
M -18 54 
L 54 -18 
M -12 60 
L 60 -12 
M -6 66 
L 66 -6 
M 0 72 
L 72 0 
M 6 78 
L 78 6 
M 12 84 
L 84 12 
M 18 90 
L 90 18 
M 24 96 
L 96 24 
M 30 102 
L 102 30 
M 36 108 
L 108 36 
" style="fill: #532741; stroke: #532741; stroke-width: 1.0; stroke-linecap: butt; stroke-linejoin: miter; stroke-opacity: 0.08"/>
  </pattern>
 </defs>
</svg>
